<svg width="26" height="28" viewBox="0 0 26 28" fill="none" xmlns="http://www.w3.org/2000/svg">
<path d="M1.79995 0.350098C1.3756 0.350098 0.968638 0.518669 0.66858 0.818727C0.368522 1.11878 0.199951 1.52575 0.199951 1.9501C0.199951 2.37444 0.368522 2.78141 0.66858 3.08147C0.968638 3.38153 1.3756 3.5501 1.79995 3.5501H3.75195L4.23995 5.5053C4.2448 5.52781 4.25013 5.55022 4.25595 5.5725L6.42875 14.2605L4.99995 15.6877C2.98395 17.7037 4.41115 21.1501 7.26235 21.1501H21C21.4243 21.1501 21.8313 20.9815 22.1313 20.6815C22.4314 20.3814 22.6 19.9744 22.6 19.5501C22.6 19.1257 22.4314 18.7188 22.1313 18.4187C21.8313 18.1187 21.4243 17.9501 21 17.9501H7.26235L8.86235 16.3501H19.4C19.697 16.3499 19.9882 16.2671 20.2408 16.1108C20.4934 15.9545 20.6976 15.731 20.8304 15.4653L25.6304 5.8653C25.7522 5.62142 25.8097 5.35046 25.7975 5.07811C25.7852 4.80576 25.7036 4.54106 25.5603 4.30913C25.417 4.0772 25.2168 3.88573 24.9787 3.75289C24.7406 3.62005 24.4726 3.55024 24.2 3.5501H7.04795L6.55195 1.5613C6.46528 1.2153 6.26547 0.908191 5.98428 0.688746C5.70309 0.469301 5.35664 0.350107 4.99995 0.350098H1.79995ZM22.6 25.1501C22.6 25.7866 22.3471 26.3971 21.897 26.8472C21.4469 27.2972 20.8365 27.5501 20.2 27.5501C19.5634 27.5501 18.953 27.2972 18.5029 26.8472C18.0528 26.3971 17.8 25.7866 17.8 25.1501C17.8 24.5136 18.0528 23.9031 18.5029 23.453C18.953 23.003 19.5634 22.7501 20.2 22.7501C20.8365 22.7501 21.4469 23.003 21.897 23.453C22.3471 23.9031 22.6 24.5136 22.6 25.1501ZM7.39995 27.5501C8.03647 27.5501 8.64692 27.2972 9.09701 26.8472C9.5471 26.3971 9.79995 25.7866 9.79995 25.1501C9.79995 24.5136 9.5471 23.9031 9.09701 23.453C8.64692 23.003 8.03647 22.7501 7.39995 22.7501C6.76343 22.7501 6.15298 23.003 5.70289 23.453C5.25281 23.9031 4.99995 24.5136 4.99995 25.1501C4.99995 25.7866 5.25281 26.3971 5.70289 26.8472C6.15298 27.2972 6.76343 27.5501 7.39995 27.5501Z" fill="#565956"/>
</svg>
