<svg width="12" height="9" viewBox="0 0 12 9" fill="none" xmlns="http://www.w3.org/2000/svg">
<path d="M4.98245 8.3859L0.982452 1.9859C0.868922 1.80426 0.806085 1.59553 0.800462 1.3814C0.79484 1.16727 0.846638 0.955533 0.950478 0.76818C1.05432 0.580826 1.20642 0.424683 1.39098 0.315961C1.57554 0.207239 1.78585 0.149902 2.00005 0.149902H10.0001C10.2143 0.149902 10.4246 0.207239 10.6091 0.315961C10.7937 0.424683 10.9458 0.580826 11.0496 0.76818C11.1535 0.955533 11.2053 1.16727 11.1996 1.3814C11.194 1.59553 11.1312 1.80426 11.0177 1.9859L7.01765 8.3859C6.90978 8.55849 6.75979 8.70081 6.58178 8.79948C6.40376 8.89814 6.20358 8.94991 6.00005 8.94991C5.79652 8.94991 5.59634 8.89814 5.41833 8.79948C5.24031 8.70081 5.09032 8.55849 4.98245 8.3859Z" fill="#948260"/>
</svg>
