<svg width="24" height="24" viewBox="0 0 24 24" fill="none" xmlns="http://www.w3.org/2000/svg">
<path fill-rule="evenodd" clip-rule="evenodd" d="M3.5999 3.6001C3.91816 3.6001 4.22339 3.72653 4.44843 3.95157C4.67347 4.17661 4.7999 4.48184 4.7999 4.8001V19.2001C4.7999 19.5184 4.67347 19.8236 4.44843 20.0486C4.22339 20.2737 3.91816 20.4001 3.5999 20.4001C3.28164 20.4001 2.97642 20.2737 2.75137 20.0486C2.52633 19.8236 2.3999 19.5184 2.3999 19.2001V4.8001C2.3999 4.48184 2.52633 4.17661 2.75137 3.95157C2.97642 3.72653 3.28164 3.6001 3.5999 3.6001ZM12.8483 7.5517C13.0733 7.77673 13.1996 8.0819 13.1996 8.4001C13.1996 8.71829 13.0733 9.02346 12.8483 9.2485L11.2967 10.8001H20.3999C20.7182 10.8001 21.0234 10.9265 21.2484 11.1516C21.4735 11.3766 21.5999 11.6818 21.5999 12.0001C21.5999 12.3184 21.4735 12.6236 21.2484 12.8486C21.0234 13.0737 20.7182 13.2001 20.3999 13.2001H11.2967L12.8483 14.7517C13.0669 14.978 13.1878 15.2811 13.1851 15.5958C13.1824 15.9104 13.0562 16.2114 12.8337 16.4339C12.6112 16.6564 12.3102 16.7826 11.9956 16.7853C11.6809 16.788 11.3778 16.6671 11.1515 16.4485L7.5515 12.8485C7.32654 12.6235 7.20016 12.3183 7.20016 12.0001C7.20016 11.6819 7.32654 11.3767 7.5515 11.1517L11.1515 7.5517C11.3765 7.32673 11.6817 7.20035 11.9999 7.20035C12.3181 7.20035 12.6233 7.32673 12.8483 7.5517Z" fill="#565956"/>
</svg>
